<?xml version="1.0" standalone="no"?>
<!DOCTYPE svg PUBLIC "-//W3C//DTD SVG 20010904//EN"
 "http://www.w3.org/TR/2001/REC-SVG-20010904/DTD/svg10.dtd">
<svg version="1.0" xmlns="http://www.w3.org/2000/svg"
 width="437.000000pt" height="332.000000pt" viewBox="0 0 437.000000 332.000000"
 preserveAspectRatio="xMidYMid meet">

<g transform="translate(0.000000,332.000000) scale(0.100000,-0.100000)"
fill="#000000" stroke="none">
<path d="M1022 1837 l-192 -192 195 -195 195 -195 190 190 c104 104 190 195
190 201 0 9 -376 384 -384 384 -1 0 -88 -87 -194 -193z m216 141 c10 -10 -16
-41 -120 -145 l-133 -133 108 -108 c102 -103 107 -109 90 -125 -17 -15 -25 -9
-144 108 l-125 124 146 146 c79 80 150 145 155 145 6 0 16 -5 23 -12z m184
-185 c140 -140 147 -148 131 -165 -16 -18 -23 -13 -150 114 l-133 133 -103
-103 c-56 -56 -107 -102 -113 -102 -5 0 -15 5 -22 12 -10 10 14 39 110 135 68
68 125 123 128 123 2 0 71 -66 152 -147z m-24 -76 l122 -122 -153 -153 c-146
-146 -154 -152 -170 -134 -16 17 -10 25 118 152 l135 135 -107 107 c-92 92
-105 109 -94 122 8 9 16 16 20 16 3 0 61 -55 129 -123z m-160 50 c9 -10 1 -24
-33 -57 -42 -42 -46 -43 -62 -27 -16 16 -15 19 22 57 42 43 56 48 73 27z m80
-80 c41 -42 42 -44 24 -60 -17 -16 -21 -14 -62 28 -37 37 -41 46 -30 60 18 21
21 20 68 -28z m-74 -30 c8 -13 7 -21 -6 -34 -16 -16 -19 -16 -38 2 -19 17 -19
19 -3 37 19 21 32 20 47 -5z m-209 -117 l130 -130 107 107 c102 102 109 107
125 90 17 -16 11 -23 -102 -137 -66 -66 -124 -120 -130 -120 -6 0 -77 67 -158
148 -116 116 -145 150 -135 160 7 7 17 12 23 12 5 0 69 -58 140 -130z m123 87
c33 -33 39 -46 30 -55 -19 -19 -31 -14 -76 31 -33 33 -39 46 -30 55 19 19 31
14 76 -31z m140 -19 c10 -10 2 -23 -35 -60 -44 -45 -48 -47 -65 -31 -18 16
-17 18 24 60 45 45 57 50 76 31z"/>
<path d="M1771 1652 c-54 -27 -73 -60 -73 -129 0 -106 47 -153 152 -153 97 0
142 47 143 149 0 71 -23 118 -68 137 -46 19 -113 18 -154 -4z m115 -67 c22
-34 15 -132 -11 -151 -24 -18 -28 -18 -56 5 -19 16 -23 28 -23 83 0 35 4 69 8
76 13 22 64 14 82 -13z"/>
<path d="M2097 1663 c-31 -5 -57 -46 -57 -91 0 -37 32 -70 91 -91 70 -26 58
-46 -23 -44 l-68 2 0 -28 c0 -35 13 -41 91 -41 63 0 112 18 123 45 9 25 7 74
-4 94 -5 10 -34 29 -65 41 -72 29 -73 50 -1 50 51 0 54 2 59 28 3 15 4 29 2
30 -6 6 -119 10 -148 5z"/>
<path d="M2336 1527 c-25 -80 -46 -147 -46 -151 0 -3 20 -6 45 -6 43 0 44 1
51 35 6 36 7 36 52 33 42 -3 46 -5 54 -35 8 -31 11 -33 53 -33 25 0 45 3 45 8
0 4 -20 70 -44 147 l-43 140 -61 3 -61 3 -45 -144z m117 44 c3 -16 9 -40 13
-55 6 -24 4 -26 -25 -26 -35 0 -36 2 -19 65 14 52 23 57 31 16z"/>
<path d="M2627 1588 c-4 -46 -7 -113 -7 -150 l0 -68 39 0 39 0 7 98 c3 53 7
108 8 122 1 14 13 -24 25 -85 13 -60 25 -116 27 -122 3 -8 21 -13 44 -13 46 0
42 -7 78 160 l18 85 6 -60 c4 -33 7 -88 8 -122 l1 -63 40 0 40 0 0 113 c0 61
-3 129 -6 150 l-7 37 -72 0 -72 0 -13 -75 c-7 -41 -16 -75 -20 -75 -4 0 -13
34 -20 75 l-13 75 -72 0 -72 0 -6 -82z"/>
<path d="M3081 1535 c-23 -74 -44 -142 -47 -150 -5 -12 3 -15 40 -15 43 0 46
2 54 33 8 30 12 32 55 35 45 3 46 3 53 -32 6 -35 7 -36 54 -36 l47 0 -46 150
-46 150 -61 0 -60 0 -43 -135z m128 -27 c1 -13 -7 -18 -29 -18 -33 0 -35 3
-19 51 21 65 21 65 35 24 7 -22 13 -48 13 -57z"/>
</g>
</svg>
